<svg xmlns="http://www.w3.org/2000/svg" viewBox="0 0 150 150"><defs><style>.cls-1{fill:#fff5d9;}.cls-2{fill:#eacf5e;}</style></defs><title>sun</title><g id="Camada_2" data-name="Camada 2"><circle class="cls-1" cx="75" cy="75" r="75"/><circle class="cls-2" cx="75" cy="75" r="23.88"/><rect class="cls-2" x="67.94" y="23.8" width="14.12" height="23.92" rx="6.54"/><rect class="cls-2" x="67.94" y="102.28" width="14.12" height="23.92" rx="6.54"/><rect class="cls-2" x="28.7" y="63.04" width="14.12" height="23.92" rx="6.54" transform="translate(-39.24 110.76) rotate(-90)"/><rect class="cls-2" x="107.18" y="63.04" width="14.12" height="23.92" rx="6.54" transform="translate(39.24 189.24) rotate(-90)"/><rect class="cls-2" x="40.19" y="35.29" width="14.12" height="23.92" rx="6.54" transform="translate(-19.57 47.25) rotate(-45)"/><rect class="cls-2" x="95.69" y="90.79" width="14.12" height="23.92" rx="6.54" transform="translate(-42.56 102.75) rotate(-45)"/><rect class="cls-2" x="95.69" y="35.29" width="14.12" height="23.92" rx="6.54" transform="translate(63.51 -58.81) rotate(45)"/><rect class="cls-2" x="40.19" y="90.79" width="14.12" height="23.92" rx="6.54" transform="translate(86.49 -3.32) rotate(45)"/></g></svg>